<svg width="32" height="32" viewBox="0 0 32 32" fill="none" xmlns="http://www.w3.org/2000/svg">
<path d="M30.982 16.2256C30.982 15.9049 30.982 15.6011 30.982 15.2888C30.982 12.5711 28.7792 10.3767 26.07 10.3767C23.3524 10.3767 21.158 12.5796 21.158 15.2888V17.711C21.158 18.7323 20.3224 19.5678 19.3012 19.5678C18.0437 19.5678 17.0224 18.5635 17.0224 17.3059V11.8453C16.9802 11.0435 16.2882 10.4274 15.5032 10.4696C14.7605 10.5118 14.1697 11.0941 14.1275 11.8453V17.5254C14.1275 18.6647 13.2076 19.5847 12.0513 19.5847C10.9119 19.5847 9.99197 18.6647 9.99197 17.5254V11.8453C9.94977 11.0435 9.2577 10.4274 8.47279 10.4696C7.73007 10.5118 7.13928 11.0941 7.09708 11.8453V17.5254C7.09708 20.2683 9.31678 22.4965 12.0682 22.4796C13.4101 22.4796 14.7099 21.9226 15.6467 20.9604C16.6089 21.9226 17.9255 22.4796 19.3012 22.4796C21.9345 22.4796 24.0613 20.3612 24.0782 17.7279V15.3057C24.0782 14.1916 24.9813 13.2885 26.0953 13.2885C27.2094 13.2885 28.1125 14.1916 28.1125 15.3057C28.1125 17.0443 28.0872 18.6647 27.4879 20.3274C26.914 21.8888 26.0109 23.3067 24.8462 24.5052C22.6096 26.7586 19.6135 28.0584 16.4569 28.1681C15.1403 28.2103 13.8153 28.0499 12.5577 27.687C8.41371 26.5223 5.23186 23.1717 4.25283 18.9686C3.39196 15.2719 4.25283 11.398 6.59069 8.41869C8.65003 5.87827 11.6293 4.26625 14.8871 3.94553C15.2838 3.92021 15.6636 3.88645 16.0518 3.88645C19.0902 3.88645 22.0104 5.02584 24.2639 7.08518H24.2808C24.88 7.62533 25.7831 7.58313 26.3232 6.9839C26.8634 6.38467 26.8212 5.4816 26.2219 4.94144C23.4452 2.40103 19.8076 1 16.0518 1C15.5708 1 15.0897 1.02532 14.6086 1.07596C10.5912 1.4642 6.89452 3.45602 4.35411 6.59566C1.41702 10.2501 0.336708 15.0356 1.40014 19.5931C2.59861 24.8428 6.55693 29.0036 11.7306 30.4806C13.1316 30.8773 14.5833 31.0799 16.0265 31.0799C16.2038 31.0799 16.3641 31.0799 16.5413 31.0799C20.4406 30.9364 24.1373 29.3159 26.8887 26.5476C28.2306 25.2057 29.3025 23.6105 30.0452 21.855C30.7542 20.0658 31.0833 18.1499 30.982 16.2256Z" fill="url(#paint0_linear)"/>
<defs>
<linearGradient id="paint0_linear" x1="16.0003" y1="-2.6181" x2="16.0003" y2="34.8377" gradientUnits="userSpaceOnUse">
<stop stop-color="#FFA21C"/>
<stop offset="0.2702" stop-color="#FF9410"/>
<stop offset="0.6691" stop-color="#FF8504"/>
<stop offset="1" stop-color="#FF8000"/>
</linearGradient>
</defs>
</svg>